<svg width="25" height="17" viewBox="0 0 25 17" fill="none" xmlns="http://www.w3.org/2000/svg">
<path d="M2.34377 0H22.6562C23.9487 0 25 0.953208 25 2.12501V14.875C25 16.0468 23.9487 17 22.6562 17H2.34377C1.05133 17 0 16.0468 0 14.875V2.12501C0 0.953208 1.05133 0 2.34377 0ZM2.34377 1.41666C2.23762 1.41666 2.13664 1.43663 2.04432 1.4715L12.5 9.6877L22.9557 1.4715C22.8634 1.43667 22.7624 1.41666 22.6563 1.41666H2.34377ZM2.34377 15.5833H22.6562C23.0873 15.5833 23.4375 15.2658 23.4375 14.8749V2.96821L13.0119 11.1604C12.8647 11.2759 12.6823 11.3333 12.5 11.3333C12.3177 11.3333 12.1353 11.2759 11.9881 11.1604L1.56249 2.96821V14.875C1.56254 15.2658 1.91271 15.5833 2.34377 15.5833Z" fill="white"/>
</svg>
