<svg width="15" height="25" viewBox="0 0 15 25" fill="none" xmlns="http://www.w3.org/2000/svg">
<path d="M14.2498 6.17199C14.6642 6.17199 15 5.84393 15 5.43957V0.732422C15 0.327873 14.6642 0 14.2498 0H8.62479C5.99582 0 3.85701 2.08817 3.85701 4.65488V9.4141H0.750186C0.335825 9.4141 0 9.74197 0 10.1465V14.8535C0 15.258 0.335825 15.5859 0.750186 15.5859H3.85701V24.2676C3.85701 24.6721 4.19283 25 4.60719 25H9.4285C9.84286 25 10.1787 24.6721 10.1787 24.2676V15.5859H13.2855C13.6432 15.5859 13.9511 15.3395 14.0212 14.9971L14.9853 10.2901C15.0295 10.075 14.9725 9.85184 14.8298 9.68208C14.6874 9.51252 14.4745 9.4141 14.2498 9.4141H10.1787V6.17199H14.2498ZM9.4285 10.8789H13.3347L12.6705 14.1211H9.4285C9.01414 14.1211 8.67832 14.4489 8.67832 14.8535V23.5352H5.35738V14.8535C5.35738 14.4489 5.02155 14.1211 4.60719 14.1211H1.50037V10.8789H4.60719C5.02155 10.8789 5.35738 10.5511 5.35738 10.1465V4.65488C5.35738 2.89593 6.82317 1.46484 8.62479 1.46484H13.4996V4.70715H9.4285C9.01414 4.70715 8.67832 5.03502 8.67832 5.43957V10.1465C8.67832 10.5511 9.01414 10.8789 9.4285 10.8789V10.8789Z" fill="white"/>
</svg>
